<svg width="153" height="22" viewBox="0 0 153 22" fill="none" xmlns="http://www.w3.org/2000/svg">
<path d="M0.596 22V1.812H3.62V18.976H20.756V22H0.596ZM25.9443 22C24.9363 22 24.0776 21.6453 23.3683 20.936C22.659 20.2267 22.3043 19.368 22.3043 18.36V5.76H25.3283V17.94C25.3283 18.3507 25.3936 18.6307 25.5243 18.78C25.6736 18.9107 25.9536 18.976 26.3643 18.976H34.7643C35.175 18.976 35.4456 18.9107 35.5763 18.78C35.7256 18.6307 35.8003 18.3507 35.8003 17.94V5.76H38.8243V18.36C38.8243 19.368 38.4696 20.2267 37.7603 20.936C37.051 21.6453 36.1923 22 35.1843 22H25.9443ZM44.7371 22C43.7291 22 42.8705 21.6453 42.1611 20.936C41.4518 20.2267 41.0971 19.368 41.0971 18.36V9.4C41.0971 8.392 41.4518 7.53333 42.1611 6.824C42.8705 6.11467 43.7291 5.76 44.7371 5.76H54.5931V0.439999H57.6171V22H44.7371ZM45.1851 18.976H53.5851C53.9958 18.976 54.2665 18.9107 54.3971 18.78C54.5278 18.6307 54.5931 18.3507 54.5931 17.94V9.82C54.5931 9.40933 54.5278 9.13867 54.3971 9.008C54.2665 8.85867 53.9958 8.784 53.5851 8.784H45.1851C44.7745 8.784 44.4945 8.85867 44.3451 9.008C44.2145 9.13867 44.1491 9.40933 44.1491 9.82V17.94C44.1491 18.3507 44.2145 18.6307 44.3451 18.78C44.4945 18.9107 44.7745 18.976 45.1851 18.976ZM60.5849 22V5.76H63.6089V22H60.5849ZM60.5849 3.464V0.439999H63.6089V3.464H60.5849ZM70.3799 22C69.3719 22 68.5132 21.6453 67.8039 20.936C67.0945 20.2267 66.7399 19.368 66.7399 18.36V5.48C66.7399 4.472 67.0945 3.61333 67.8039 2.904C68.5132 2.19467 69.3719 1.84 70.3799 1.84H86.8439V4.864H70.7999C70.3892 4.864 70.1092 4.93867 69.9599 5.088C69.8292 5.21867 69.7639 5.48933 69.7639 5.9V17.94C69.7639 18.3507 69.8292 18.6307 69.9599 18.78C70.1092 18.9107 70.3892 18.976 70.7999 18.976H86.8439V22H70.3799ZM93.2913 22C92.2833 22 91.4246 21.6453 90.7153 20.936C90.006 20.2267 89.6513 19.368 89.6513 18.36V12.368H103.119V9.82C103.119 9.40933 103.054 9.13867 102.923 9.008C102.793 8.85867 102.522 8.784 102.111 8.784H89.6513V5.76H102.531C103.539 5.76 104.398 6.11467 105.107 6.824C105.817 7.53333 106.171 8.392 106.171 9.4V22H93.2913ZM93.7113 18.976H103.119V15.196H92.6753V17.94C92.6753 18.3507 92.7406 18.6307 92.8713 18.78C93.0206 18.9107 93.3006 18.976 93.7113 18.976ZM108.492 22V5.76H129.24C130.248 5.76 131.107 6.11467 131.816 6.824C132.526 7.53333 132.88 8.392 132.88 9.4V22H129.884V9.82C129.884 9.40933 129.81 9.13867 129.66 9.008C129.53 8.85867 129.259 8.784 128.848 8.784H123.276C122.847 8.784 122.567 8.85867 122.436 9.008C122.306 9.13867 122.24 9.40933 122.24 9.82V22H119.188V9.82C119.188 9.40933 119.114 9.13867 118.964 9.008C118.834 8.85867 118.563 8.784 118.152 8.784H112.552C112.142 8.784 111.871 8.85867 111.74 9.008C111.61 9.13867 111.544 9.40933 111.544 9.82V22H108.492ZM139.336 22C138.328 22 137.469 21.6453 136.76 20.936C136.05 20.2267 135.696 19.368 135.696 18.36V17.94H138.72V18.108C138.72 18.4067 138.785 18.6307 138.916 18.78C139.065 18.9107 139.289 18.976 139.588 18.976H148.324C148.622 18.976 148.837 18.9107 148.968 18.78C149.098 18.6307 149.164 18.4067 149.164 18.108V16.26C149.164 15.9613 149.098 15.7467 148.968 15.616C148.837 15.4667 148.622 15.392 148.324 15.392H139.336C138.328 15.392 137.469 15.0373 136.76 14.328C136.05 13.6187 135.696 12.76 135.696 11.752V9.4C135.696 8.392 136.05 7.53333 136.76 6.824C137.469 6.11467 138.328 5.76 139.336 5.76H148.576C149.584 5.76 150.442 6.11467 151.152 6.824C151.861 7.53333 152.216 8.392 152.216 9.4V9.82H149.164V9.652C149.164 9.35333 149.098 9.13867 148.968 9.008C148.837 8.85867 148.622 8.784 148.324 8.784H139.588C139.289 8.784 139.065 8.85867 138.916 9.008C138.785 9.13867 138.72 9.35333 138.72 9.652V11.5C138.72 11.7987 138.785 12.0227 138.916 12.172C139.065 12.3027 139.289 12.368 139.588 12.368H148.576C149.584 12.368 150.442 12.7227 151.152 13.432C151.861 14.1413 152.216 15 152.216 16.008V18.36C152.216 19.368 151.861 20.2267 151.152 20.936C150.442 21.6453 149.584 22 148.576 22H139.336Z" fill="#3C3C3C"/>
</svg>
